<svg width="19" height="18" viewBox="0 0 19 18" fill="none" xmlns="http://www.w3.org/2000/svg">
<path d="M9.383 0.00699997L9.5 0C9.74493 3.23106e-05 9.98134 0.0899562 10.1644 0.252715C10.3474 0.415475 10.4643 0.639749 10.493 0.883L10.5 1V8H17.5C17.7449 8.00003 17.9813 8.08996 18.1644 8.25272C18.3474 8.41547 18.4643 8.63975 18.493 8.883L18.5 9C18.5 9.24493 18.41 9.48134 18.2473 9.66437C18.0845 9.84741 17.8603 9.96434 17.617 9.993L17.5 10H10.5V17C10.5 17.2449 10.41 17.4813 10.2473 17.6644C10.0845 17.8474 9.86025 17.9643 9.617 17.993L9.5 18C9.25507 18 9.01866 17.91 8.83563 17.7473C8.65259 17.5845 8.53566 17.3603 8.507 17.117L8.5 17V10H1.5C1.25507 9.99997 1.01866 9.91004 0.835628 9.74728C0.652593 9.58453 0.535657 9.36025 0.507 9.117L0.5 9C0.500032 8.75507 0.589956 8.51866 0.752715 8.33563C0.915475 8.15259 1.13975 8.03566 1.383 8.007L1.5 8H8.5V1C8.50003 0.755067 8.58996 0.518663 8.75272 0.335628C8.91547 0.152593 9.13975 0.0356572 9.383 0.00699997L9.5 0L9.383 0.00699997Z" fill="white"/>
</svg>
