<svg width="21" height="20" viewBox="0 0 21 20" fill="none" xmlns="http://www.w3.org/2000/svg">
<path d="M10.6016 0C16.1246 0 20.6016 4.477 20.6016 10C20.6016 15.523 16.1246 20 10.6016 20C5.07856 20 0.601562 15.523 0.601562 10C0.601562 4.477 5.07856 0 10.6016 0ZM10.6016 1.5C8.34722 1.5 6.18521 2.39553 4.59116 3.98959C2.9971 5.58365 2.10156 7.74566 2.10156 10C2.10156 12.2543 2.9971 14.4163 4.59116 16.0104C6.18521 17.6045 8.34722 18.5 10.6016 18.5C12.8559 18.5 15.0179 17.6045 16.612 16.0104C18.206 14.4163 19.1016 12.2543 19.1016 10C19.1016 7.74566 18.206 5.58365 16.612 3.98959C15.0179 2.39553 12.8559 1.5 10.6016 1.5ZM10.6016 5C10.8005 5 10.9912 5.07902 11.1319 5.21967C11.2725 5.36032 11.3516 5.55109 11.3516 5.75V9.25H14.8516C15.0505 9.25 15.2412 9.32902 15.3819 9.46967C15.5225 9.61032 15.6016 9.80109 15.6016 10C15.6016 10.1989 15.5225 10.3897 15.3819 10.5303C15.2412 10.671 15.0505 10.75 14.8516 10.75H11.3516V14.25C11.3516 14.4489 11.2725 14.6397 11.1319 14.7803C10.9912 14.921 10.8005 15 10.6016 15C10.4026 15 10.2119 14.921 10.0712 14.7803C9.93058 14.6397 9.85156 14.4489 9.85156 14.25V10.75H6.35156C6.15265 10.75 5.96188 10.671 5.82123 10.5303C5.68058 10.3897 5.60156 10.1989 5.60156 10C5.60156 9.80109 5.68058 9.61032 5.82123 9.46967C5.96188 9.32902 6.15265 9.25 6.35156 9.25H9.85156V5.75C9.85156 5.55109 9.93058 5.36032 10.0712 5.21967C10.2119 5.07902 10.4026 5 10.6016 5Z" fill="#ABABB8"/>
</svg>
