<svg width="18" height="16" viewBox="0 0 18 16" fill="none" xmlns="http://www.w3.org/2000/svg">
<path d="M7.733 0.208529C7.87805 0.0772777 8.06864 0.00789105 8.26412 0.0151681C8.4596 0.0224451 8.64451 0.10581 8.7794 0.247483C8.91428 0.389155 8.98848 0.577923 8.98617 0.773527C8.98385 0.969131 8.90521 1.15609 8.767 1.29453L2.516 7.24953H17.25C17.4489 7.24953 17.6397 7.32855 17.7803 7.4692C17.921 7.60985 18 7.80062 18 7.99953C18 8.19844 17.921 8.38921 17.7803 8.52986C17.6397 8.67051 17.4489 8.74953 17.25 8.74953H2.516L8.767 14.7035C8.91115 14.8406 8.99492 15.0294 8.99989 15.2283C9.00486 15.4272 8.93062 15.6199 8.7935 15.764C8.65638 15.9082 8.46762 15.9919 8.26874 15.9969C8.06986 16.0019 7.87714 15.9276 7.733 15.7905L0.313 8.72353C0.150663 8.5694 0.0449829 8.36508 0.0130005 8.14353C-0.00533295 8.0477 -0.00499344 7.94923 0.0139999 7.85353C0.0463352 7.63267 0.151997 7.42909 0.313999 7.27553L7.733 0.208529Z" fill="#ABABB8"/>
</svg>
