<svg width="20" height="20" viewBox="0 0 20 20" fill="none" xmlns="http://www.w3.org/2000/svg">
<path d="M17.75 0C18.3468 0 18.9191 0.237053 19.341 0.65901C19.763 1.08097 20 1.65326 20 2.25V7.712C20 8.57393 19.6575 9.40055 19.048 10.01L10.548 18.513C9.93798 19.1217 9.11148 19.4636 8.24973 19.4637C7.38799 19.4639 6.56133 19.1224 5.95103 18.514L1.48902 14.06C0.87906 13.451 0.535969 12.6247 0.535219 11.7628C0.534468 10.9009 0.876121 10.074 1.48502 9.464L9.98502 0.954C10.287 0.651785 10.6455 0.412059 11.0402 0.248534C11.4348 0.0850091 11.8578 0.000893938 12.285 0.000999928H17.75V0ZM17.75 1.5H12.284C11.82 1.5 11.374 1.685 11.046 2.013L2.53402 10.536C2.21174 10.8656 2.03254 11.3091 2.03535 11.7701C2.03816 12.2311 2.22275 12.6723 2.54902 12.998L7.01003 17.452C7.33895 17.7796 7.78428 17.9636 8.24852 17.9636C8.71277 17.9636 9.1581 17.7796 9.48703 17.452L17.987 8.949C18.3153 8.62099 18.4998 8.17604 18.5 7.712V2.25C18.5 2.05109 18.421 1.86032 18.2804 1.71967C18.1397 1.57902 17.9489 1.5 17.75 1.5ZM15 3.502C15.197 3.502 15.3921 3.5408 15.5741 3.61618C15.756 3.69156 15.9214 3.80205 16.0607 3.94134C16.2 4.08063 16.3105 4.24599 16.3858 4.42797C16.4612 4.60996 16.5 4.80502 16.5 5.002C16.5 5.19898 16.4612 5.39404 16.3858 5.57603C16.3105 5.75801 16.2 5.92337 16.0607 6.06266C15.9214 6.20195 15.756 6.31244 15.5741 6.38782C15.3921 6.4632 15.197 6.502 15 6.502C14.6022 6.502 14.2207 6.34396 13.9394 6.06266C13.6581 5.78136 13.5 5.39982 13.5 5.002C13.5 4.60418 13.6581 4.22264 13.9394 3.94134C14.2207 3.66004 14.6022 3.502 15 3.502Z" fill="#595964"/>
</svg>
