<svg width="20" height="16" viewBox="0 0 20 16" fill="none" xmlns="http://www.w3.org/2000/svg">
<path d="M11.75 0.5C12.612 0.5 13.4386 0.84241 14.0481 1.4519C14.6576 2.0614 15 2.88805 15 3.75V3.923L18.864 1.605C18.9778 1.53669 19.1077 1.4998 19.2404 1.4981C19.3731 1.49641 19.5039 1.52996 19.6194 1.59535C19.735 1.66073 19.831 1.75559 19.8979 1.87025C19.9648 1.98492 20 2.11527 20 2.248V13.75C20 13.8827 19.9648 14.0131 19.8979 14.1277C19.831 14.2424 19.735 14.3373 19.6194 14.4027C19.5039 14.468 19.3731 14.5016 19.2404 14.4999C19.1077 14.4982 18.9778 14.4613 18.864 14.393L15 12.075V12.25C15 13.112 14.6576 13.9386 14.0481 14.5481C13.4386 15.1576 12.612 15.5 11.75 15.5H3.25C2.38805 15.5 1.5614 15.1576 0.951903 14.5481C0.34241 13.9386 0 13.112 0 12.25V3.75C0 2.88805 0.34241 2.0614 0.951903 1.4519C1.5614 0.84241 2.38805 0.5 3.25 0.5H11.75ZM11.75 2H3.25C2.78587 2 2.34075 2.18437 2.01256 2.51256C1.68437 2.84075 1.5 3.28587 1.5 3.75V12.25C1.5 13.216 2.284 14 3.25 14H11.75C12.2141 14 12.6592 13.8156 12.9874 13.4874C13.3156 13.1592 13.5 12.7141 13.5 12.25V3.75C13.5 3.28587 13.3156 2.84075 12.9874 2.51256C12.6592 2.18437 12.2141 2 11.75 2ZM18.5 3.573L15 5.674V10.325L18.5 12.425V3.573Z" fill="#ABABB8"/>
</svg>
