<svg width="16" height="8" viewBox="0 0 16 8" fill="none" xmlns="http://www.w3.org/2000/svg">
<path d="M9.53109 1.78114L4.03109 7.28114C3.88956 7.42083 3.6987 7.49916 3.49984 7.49916C3.30097 7.49916 3.11012 7.42083 2.96859 7.28114L0.218586 4.53114C0.0776898 4.39024 -0.00146484 4.19915 -0.00146484 3.99989C-0.00146484 3.80063 0.0776898 3.60953 0.218586 3.46864C0.359482 3.32774 0.550579 3.24859 0.749836 3.24859C0.949093 3.24859 1.14019 3.32774 1.28109 3.46864L3.49984 5.68739L8.46859 0.718638C8.60948 0.577742 8.80058 0.498588 8.99984 0.498588C9.19909 0.498588 9.39019 0.577742 9.53109 0.718638C9.67198 0.859535 9.75114 1.05063 9.75114 1.24989C9.75114 1.44915 9.67198 1.64024 9.53109 1.78114ZM15.7811 0.718638C15.7114 0.648718 15.6286 0.593241 15.5374 0.555387C15.4463 0.517533 15.3485 0.498047 15.2498 0.498047C15.1511 0.498047 15.0534 0.517533 14.9622 0.555387C14.8711 0.593241 14.7883 0.648718 14.7186 0.718638L9.74984 5.68739L9.27483 5.21864C9.20814 5.13851 9.12547 5.07317 9.03211 5.02678C8.93875 4.9804 8.83674 4.95399 8.7326 4.94923C8.62845 4.94448 8.52446 4.96149 8.42726 4.99918C8.33006 5.03687 8.24179 5.09441 8.16807 5.16812C8.09435 5.24184 8.03681 5.33011 7.99912 5.42731C7.96144 5.52452 7.94443 5.62851 7.94918 5.73265C7.95393 5.83679 7.98034 5.9388 8.02673 6.03216C8.07312 6.12553 8.13846 6.20819 8.21859 6.27489L9.21859 7.28114C9.36012 7.42083 9.55097 7.49916 9.74984 7.49916C9.9487 7.49916 10.1396 7.42083 10.2811 7.28114L15.7811 1.78114C15.851 1.71146 15.9065 1.62867 15.9443 1.5375C15.9822 1.44634 16.0017 1.3486 16.0017 1.24989C16.0017 1.15118 15.9822 1.05344 15.9443 0.962275C15.9065 0.871111 15.851 0.788316 15.7811 0.718638Z" fill="#93D674"/>
</svg>
