<svg width="18" height="18" viewBox="0 0 18 18" fill="none" xmlns="http://www.w3.org/2000/svg">
<path d="M0.595737 0.831036L0.705237 0.705036C0.895719 0.51451 1.14825 0.398668 1.41691 0.378573C1.68558 0.358478 1.95253 0.435466 2.16924 0.595536L2.29524 0.705036L9.00024 7.40854L15.7052 0.703536C15.8091 0.596138 15.9332 0.510492 16.0705 0.451598C16.2078 0.392703 16.3554 0.361739 16.5048 0.360512C16.6542 0.359284 16.8023 0.387819 16.9406 0.44445C17.0788 0.501081 17.2044 0.584675 17.3099 0.690354C17.4155 0.796032 17.499 0.921679 17.5555 1.05996C17.612 1.19825 17.6404 1.3464 17.639 1.49578C17.6376 1.64515 17.6065 1.79276 17.5475 1.92999C17.4885 2.06721 17.4027 2.19131 17.2952 2.29504L10.5917 9.00004L17.2967 15.705C17.487 15.8957 17.6026 16.1483 17.6224 16.417C17.6422 16.6857 17.565 16.9525 17.4047 17.169L17.2952 17.295C17.1048 17.4856 16.8522 17.6014 16.5836 17.6215C16.3149 17.6416 16.0479 17.5646 15.8312 17.4045L15.7052 17.295L9.00024 10.5915L2.29524 17.2965C2.08296 17.5014 1.79873 17.6146 1.50376 17.6119C1.20879 17.6092 0.926679 17.4908 0.718192 17.2821C0.509705 17.0734 0.391523 16.7912 0.3891 16.4962C0.386677 16.2012 0.500206 15.9171 0.705237 15.705L7.40874 9.00004L0.703737 2.29504C0.513435 2.10437 0.397869 1.85174 0.37805 1.58308C0.358231 1.31442 0.435474 1.04757 0.595737 0.831036L0.705237 0.705036L0.595737 0.831036V0.831036Z" fill="white"/>
</svg>
