<svg width="24" height="25" viewBox="0 0 24 25" fill="none" xmlns="http://www.w3.org/2000/svg">
<path d="M5.25 18.9966C4.38805 18.9966 3.5614 18.6542 2.9519 18.0447C2.34241 17.4352 2 16.6085 2 15.7466V7.24658C2 6.38463 2.34241 5.55798 2.9519 4.94848C3.5614 4.33899 4.38805 3.99658 5.25 3.99658H18.75C19.1768 3.99658 19.5994 4.08065 19.9937 4.24397C20.388 4.4073 20.7463 4.64669 21.0481 4.94848C21.3499 5.25028 21.5893 5.60855 21.7526 6.00286C21.9159 6.39717 22 6.81979 22 7.24658V15.7466C22 16.1734 21.9159 16.596 21.7526 16.9903C21.5893 17.3846 21.3499 17.7429 21.0481 18.0447C20.7463 18.3465 20.388 18.5859 19.9937 18.7492C19.5994 18.9125 19.1768 18.9966 18.75 18.9966H13.012L8 22.7466C7.81428 22.8856 7.59356 22.9702 7.36251 22.9908C7.13146 23.0115 6.89922 22.9675 6.69176 22.8638C6.4843 22.76 6.30981 22.6005 6.18782 22.4032C6.06582 22.2059 6.00114 21.9786 6.001 21.7466V18.9966H5.251H5.25ZM12.514 17.4966H18.75C19.2141 17.4966 19.6592 17.3122 19.9874 16.984C20.3156 16.6558 20.5 16.2107 20.5 15.7466V7.24658C20.5 6.78245 20.3156 6.33733 19.9874 6.00915C19.6592 5.68096 19.2141 5.49658 18.75 5.49658H5.25C4.78587 5.49658 4.34075 5.68096 4.01256 6.00915C3.68437 6.33733 3.5 6.78245 3.5 7.24658V15.7466C3.5 16.7126 4.284 17.4966 5.25 17.4966H7.499V21.2466L12.514 17.4966Z" fill="#ABABB8"/>
</svg>
