<svg width="21" height="21" viewBox="0 0 21 21" fill="none" xmlns="http://www.w3.org/2000/svg">
<path d="M15.4999 9.99988C16.9586 9.99988 18.3576 10.5793 19.389 11.6108C20.4205 12.6422 20.9999 14.0412 20.9999 15.4999C20.9999 16.9586 20.4205 18.3575 19.389 19.389C18.3576 20.4204 16.9586 20.9999 15.4999 20.9999C14.0412 20.9999 12.6423 20.4204 11.6108 19.389C10.5794 18.3575 9.99993 16.9586 9.99993 15.4999C9.99993 14.0412 10.5794 12.6422 11.6108 11.6108C12.6423 10.5793 14.0412 9.99988 15.4999 9.99988ZM10.0219 11.9999C9.7222 12.4674 9.48391 12.9715 9.31293 13.4999H2.25293C2.05402 13.4999 1.86325 13.5789 1.7226 13.7196C1.58195 13.8602 1.50293 14.051 1.50293 14.2499V15.1569C1.50293 15.8129 1.78893 16.4369 2.28693 16.8639C3.54493 17.9449 5.43993 18.4999 7.99993 18.4999C8.59893 18.4999 9.16093 18.4699 9.68793 18.4099C9.93693 18.9099 10.2509 19.3729 10.6169 19.7899C9.81493 19.9299 8.94193 19.9999 7.99993 19.9999C5.10993 19.9999 2.87193 19.3439 1.30893 17.9999C0.899264 17.6479 0.570479 17.2115 0.345072 16.7206C0.119665 16.2298 0.00295572 15.696 0.00292969 15.1559V14.2489C0.00319483 13.6523 0.240365 13.0803 0.662293 12.6585C1.08422 12.2368 1.65637 11.9999 2.25293 11.9999H10.0229H10.0219ZM13.0919 12.9659L13.0239 13.0239L12.9659 13.0939C12.9083 13.1774 12.8774 13.2764 12.8774 13.3779C12.8774 13.4793 12.9083 13.5784 12.9659 13.6619L13.0239 13.7319L14.7939 15.5009L13.0259 17.2679L12.9679 17.3369C12.9101 17.4205 12.8791 17.5197 12.8791 17.6214C12.8791 17.723 12.9101 17.8223 12.9679 17.9059L13.0259 17.9749L13.0959 18.0329C13.1794 18.0905 13.2785 18.1214 13.3799 18.1214C13.4814 18.1214 13.5804 18.0905 13.6639 18.0329L13.7339 17.9749L15.4999 16.2079L17.2699 17.9779L17.3389 18.0349C17.4224 18.0925 17.5215 18.1234 17.6229 18.1234C17.7244 18.1234 17.8234 18.0925 17.9069 18.0349L17.9769 17.9769L18.0339 17.9069C18.0916 17.8234 18.1224 17.7243 18.1224 17.6229C18.1224 17.5214 18.0916 17.4224 18.0339 17.3389L17.9759 17.2699L16.2069 15.4999L17.9789 13.7319L18.0369 13.6619C18.0946 13.5784 18.1254 13.4793 18.1254 13.3779C18.1254 13.2764 18.0946 13.1774 18.0369 13.0939L17.9789 13.0239L17.9089 12.9669C17.8254 12.9093 17.7264 12.8784 17.6249 12.8784C17.5235 12.8784 17.4244 12.9093 17.3409 12.9669L17.2719 13.0239L15.4999 14.7939L13.7299 13.0239L13.6609 12.9669C13.5898 12.9176 13.507 12.8876 13.4207 12.8799C13.3345 12.8722 13.2477 12.887 13.1689 12.9229L13.0929 12.9659H13.0919ZM7.99993 0.00488281C8.65654 0.0048828 9.30672 0.134211 9.91335 0.385485C10.52 0.636758 11.0712 1.00506 11.5355 1.46935C11.9998 1.93364 12.3681 2.48484 12.6193 3.09147C12.8706 3.69809 12.9999 4.34827 12.9999 5.00488C12.9999 5.66149 12.8706 6.31167 12.6193 6.9183C12.3681 7.52493 11.9998 8.07612 11.5355 8.54042C11.0712 9.00471 10.52 9.37301 9.91335 9.62428C9.30672 9.87555 8.65654 10.0049 7.99993 10.0049C6.67385 10.0049 5.40208 9.4781 4.4644 8.54042C3.52671 7.60273 2.99993 6.33097 2.99993 5.00488C2.99993 3.6788 3.52671 2.40703 4.4644 1.46935C5.40208 0.531667 6.67385 0.00488281 7.99993 0.00488281ZM7.99993 1.50488C7.5403 1.50488 7.08518 1.59541 6.66054 1.7713C6.2359 1.9472 5.85006 2.205 5.52506 2.53001C5.20005 2.85501 4.94224 3.24085 4.76635 3.66549C4.59046 4.09013 4.49993 4.54526 4.49993 5.00488C4.49993 5.46451 4.59046 5.91963 4.76635 6.34427C4.94224 6.76891 5.20005 7.15475 5.52506 7.47976C5.85006 7.80476 6.2359 8.06257 6.66054 8.23846C7.08518 8.41435 7.5403 8.50488 7.99993 8.50488C8.92819 8.50488 9.81843 8.13613 10.4748 7.47976C11.1312 6.82338 11.4999 5.93314 11.4999 5.00488C11.4999 4.07662 11.1312 3.18639 10.4748 2.53001C9.81843 1.87363 8.92819 1.50488 7.99993 1.50488Z" fill="#858593"/>
</svg>
