<svg width="24" height="25" viewBox="0 0 24 25" fill="none" xmlns="http://www.w3.org/2000/svg">
<path d="M5.25 18.9966C4.38805 18.9966 3.5614 18.6542 2.9519 18.0447C2.34241 17.4352 2 16.6085 2 15.7466V7.24658C2 6.38463 2.34241 5.55798 2.9519 4.94848C3.5614 4.33899 4.38805 3.99658 5.25 3.99658H18.75C19.1768 3.99658 19.5994 4.08065 19.9937 4.24397C20.388 4.4073 20.7463 4.64669 21.0481 4.94848C21.3499 5.25028 21.5893 5.60855 21.7526 6.00286C21.9159 6.39717 22 6.81979 22 7.24658V15.7466C22 16.1734 21.9159 16.596 21.7526 16.9903C21.5893 17.3846 21.3499 17.7429 21.0481 18.0447C20.7463 18.3465 20.388 18.5859 19.9937 18.7492C19.5994 18.9125 19.1768 18.9966 18.75 18.9966H13.012L8 22.7466C7.81428 22.8856 7.59356 22.9702 7.36251 22.9908C7.13146 23.0115 6.89922 22.9675 6.69176 22.8638C6.4843 22.76 6.30981 22.6005 6.18782 22.4032C6.06582 22.2059 6.00114 21.9786 6.001 21.7466V18.9966H5.251H5.25ZM12.514 17.4966H18.75C19.2141 17.4966 19.6592 17.3122 19.9874 16.984C20.3156 16.6558 20.5 16.2107 20.5 15.7466V7.24658C20.5 6.78245 20.3156 6.33733 19.9874 6.00915C19.6592 5.68096 19.2141 5.49658 18.75 5.49658H5.25C4.78587 5.49658 4.34075 5.68096 4.01256 6.00915C3.68437 6.33733 3.5 6.78245 3.5 7.24658V15.7466C3.5 16.7126 4.284 17.4966 5.25 17.4966H7.499V21.2466L12.514 17.4966Z" fill="#ABABB8"/>
<path d="M12.4016 7.55908C12.4016 7.4099 12.3384 7.26682 12.2258 7.16133C12.1133 7.05585 11.9607 6.99658 11.8016 6.99658C11.6424 6.99658 11.4898 7.05585 11.3773 7.16133C11.2648 7.26682 11.2016 7.4099 11.2016 7.55908V7.82458C10.7403 7.94719 10.3344 8.20754 10.0453 8.56611C9.75627 8.92468 9.5999 9.36188 9.59998 9.81133V9.83908C9.59998 10.6686 10.1232 11.4201 10.9336 11.7538L11.2016 11.8641V13.9266C11.0769 13.8393 10.9756 13.7259 10.9059 13.5954C10.8362 13.4649 10.7999 13.321 10.8 13.1751V12.7228C10.8 12.5736 10.7368 12.4306 10.6242 12.3251C10.5117 12.2196 10.3591 12.1603 10.2 12.1603C10.0408 12.1603 9.88823 12.2196 9.77571 12.3251C9.66319 12.4306 9.59998 12.5736 9.59998 12.7228V13.1751C9.59998 14.1201 10.2776 14.9166 11.2016 15.1618V15.4356C11.2016 15.5848 11.2648 15.7278 11.3773 15.8333C11.4898 15.9388 11.6424 15.9981 11.8016 15.9981C11.9607 15.9981 12.1133 15.9388 12.2258 15.8333C12.3384 15.7278 12.4016 15.5848 12.4016 15.4356V15.1603C12.8632 15.0342 13.2688 14.7711 13.5576 14.4106C13.8463 14.0502 14.0027 13.6116 14.0032 13.1608C14.0032 12.7543 13.8774 12.3564 13.641 12.0156C13.4045 11.6748 13.0676 11.4056 12.6712 11.2408L12.4016 11.1291V9.05908C12.6448 9.23083 12.8032 9.50383 12.8032 9.81133V10.2711C12.8032 10.4203 12.8664 10.5633 12.9789 10.6688C13.0914 10.7743 13.244 10.8336 13.4032 10.8336C13.5623 10.8336 13.7149 10.7743 13.8274 10.6688C13.94 10.5633 14.0032 10.4203 14.0032 10.2711V9.81133C14.0032 8.86633 13.3256 8.06983 12.4016 7.82458V7.55908ZM11.2016 9.05908V10.6041C11.0767 10.5138 10.9756 10.3979 10.906 10.2653C10.8363 10.1327 10.8001 9.98689 10.8 9.83908V9.81133C10.8 9.50383 10.9576 9.23083 11.2016 9.05908ZM12.4016 12.3891C12.6496 12.5698 12.8032 12.8556 12.8032 13.1616C12.8032 13.4713 12.644 13.7473 12.4016 13.9213V12.3891Z" fill="#ABABB8"/>
</svg>
