<svg width="24" height="25" viewBox="0 0 24 25" fill="none" xmlns="http://www.w3.org/2000/svg">
<path d="M24 12.5363C24 11.7292 23.9284 10.9629 23.8058 10.217H12.2605V14.825H18.871C18.5747 16.3371 17.7062 17.6142 16.4189 18.4827V21.5478H20.3627C22.6717 19.4124 24 16.2656 24 12.5363Z" fill="#4285F4"/>
<path d="M12.2606 24.5209C15.571 24.5209 18.3398 23.4175 20.3628 21.5477L16.419 18.4826C15.3156 19.2182 13.9158 19.6678 12.2606 19.6678C9.06269 19.6678 6.35515 17.512 5.38453 14.6001H1.31812V17.7572C3.33089 21.7623 7.46882 24.5209 12.2606 24.5209Z" fill="#34A853"/>
<path d="M5.38442 14.6003C5.12899 13.8646 4.99617 13.0779 4.99617 12.2605C4.99617 11.4432 5.13921 10.6565 5.38442 9.92082V6.76373H1.31801C0.480203 8.41891 0 10.2784 0 12.2605C0 14.2427 0.480203 16.1022 1.31801 17.7573L5.38442 14.6003Z" fill="#FBBC05"/>
<path d="M12.2606 4.85313C14.0691 4.85313 15.6834 5.47638 16.9605 6.69221L20.4548 3.19796C18.3398 1.21584 15.571 0 12.2606 0C7.46882 0 3.33089 2.75862 1.31812 6.76373L5.38453 9.92082C6.35515 7.00894 9.06269 4.85313 12.2606 4.85313Z" fill="#EA4335"/>
</svg>
