<svg width="12" height="11" viewBox="0 0 12 11" fill="none" xmlns="http://www.w3.org/2000/svg">
<path d="M5.54032 0.957322C4.93247 0.346599 4.10697 0.00226136 3.24531 1.10984e-05C2.38364 -0.00223916 1.55636 0.337783 0.945322 0.945322C0.337783 1.55636 -0.00223916 2.38364 1.10984e-05 3.24531C0.00226136 4.10697 0.346599 4.93247 0.957322 5.54032L5.66432 10.2483C5.75809 10.3421 5.88524 10.3947 6.01782 10.3947C6.1504 10.3947 6.27756 10.3421 6.37132 10.2483L11.0543 5.56832C11.6616 4.95733 12.0014 4.13026 11.9991 3.26884C11.9969 2.40742 11.6527 1.58213 11.0423 0.974322C10.7411 0.67126 10.3831 0.430533 9.9888 0.2659C9.59449 0.101266 9.1716 0.0159537 8.74431 0.0148393C8.31701 0.0137249 7.89369 0.09683 7.49853 0.259405C7.10337 0.421979 6.74412 0.660836 6.44132 0.962322L5.99432 1.41032L5.54032 0.957322ZM10.3453 4.86232L6.01932 9.18732L1.66432 4.83332C1.24137 4.41304 1.00254 3.84206 1.0003 3.24581C0.998045 2.64955 1.23256 2.07679 1.65232 1.65332C2.07556 1.23299 2.64839 0.997922 3.24489 0.999797C3.84139 1.00167 4.41273 1.24034 4.83332 1.66332L5.64332 2.47332C5.69042 2.52043 5.74645 2.55765 5.80813 2.5828C5.86981 2.60795 5.9359 2.62052 6.00251 2.61977C6.06911 2.61903 6.1349 2.60498 6.196 2.57846C6.2571 2.55193 6.31229 2.51347 6.35832 2.46532L7.14832 1.66932C7.35825 1.46081 7.60721 1.29571 7.88097 1.18346C8.15473 1.07121 8.44793 1.01401 8.74381 1.01512C9.03969 1.01624 9.33245 1.07565 9.60536 1.18996C9.87826 1.30427 10.126 1.47124 10.3343 1.68132C10.7574 2.10178 10.9963 2.67305 10.9983 3.26954C11.0004 3.86604 10.7655 4.43895 10.3453 4.86232Z" fill="#ABABB8"/>
</svg>
