<svg width="24" height="25" viewBox="0 0 24 25" fill="none" xmlns="http://www.w3.org/2000/svg">
<path d="M12.82 6.57657L12 7.39857L11.176 6.57457C10.1679 5.56661 8.8007 5.0004 7.37515 5.00049C5.94959 5.00059 4.58245 5.56698 3.5745 6.57507C2.56654 7.58315 2.00033 8.95036 2.00043 10.3759C2.00052 11.8015 2.56691 13.1686 3.575 14.1766L11.47 22.0716C11.6106 22.212 11.8012 22.2909 12 22.2909C12.1988 22.2909 12.3894 22.212 12.53 22.0716L20.432 14.1746C21.4389 13.1664 22.0044 11.7997 22.0042 10.3749C22.004 8.94999 21.4382 7.58347 20.431 6.57557C19.9314 6.07561 19.3381 5.679 18.6852 5.40841C18.0322 5.13781 17.3323 4.99854 16.6255 4.99854C15.9187 4.99854 15.2188 5.13781 14.5658 5.40841C13.9129 5.679 13.3196 6.07561 12.82 6.57557V6.57657ZM19.368 13.1166L12 20.4816L4.635 13.1166C4.27203 12.7574 3.98362 12.3301 3.78633 11.8592C3.58905 11.3882 3.48679 10.8829 3.48544 10.3723C3.48408 9.86169 3.58365 9.35585 3.77842 8.88385C3.97319 8.41186 4.25933 7.983 4.62038 7.62195C4.98144 7.2609 5.41029 6.97476 5.88229 6.77999C6.35429 6.58521 6.86012 6.48565 7.37073 6.487C7.88134 6.48836 8.38664 6.59062 8.85759 6.7879C9.32855 6.98518 9.75587 7.2736 10.115 7.63657L11.473 8.99357C11.5437 9.0643 11.6277 9.1202 11.7203 9.15797C11.8129 9.19574 11.9121 9.21462 12.012 9.2135C12.112 9.21238 12.2107 9.19129 12.3024 9.15146C12.3941 9.11163 12.4769 9.05386 12.546 8.98157L13.88 7.63657C14.6153 6.95214 15.5874 6.57958 16.5918 6.59725C17.5962 6.61492 18.5546 7.02146 19.2654 7.73133C19.9761 8.4412 20.3839 9.39907 20.4029 10.4034C20.4218 11.4078 20.0505 12.3804 19.367 13.1166H19.368Z" fill="#ABABB8"/>
</svg>
