<svg width="24" height="24" viewBox="0 0 24 24" fill="none" xmlns="http://www.w3.org/2000/svg">
<path d="M10.55 2.78222C10.9558 2.44024 11.4693 2.25269 12 2.25269C12.5307 2.25269 13.0442 2.44024 13.45 2.78222L20.2 8.47422C20.707 8.90222 21 9.53122 21 10.1942V19.9972C21 20.4613 20.8156 20.9065 20.4874 21.2347C20.1592 21.5628 19.7141 21.7472 19.25 21.7472H15.75C15.2859 21.7472 14.8408 21.5628 14.5126 21.2347C14.1844 20.9065 14 20.4613 14 19.9972V14.4972C14 14.4309 13.9737 14.3673 13.9268 14.3204C13.8799 14.2736 13.8163 14.2472 13.75 14.2472H10.25C10.1837 14.2472 10.1201 14.2736 10.0732 14.3204C10.0263 14.3673 10 14.4309 10 14.4972V19.9972C10 20.4613 9.81563 20.9065 9.48744 21.2347C9.15925 21.5628 8.71413 21.7472 8.25 21.7472H4.75C4.52019 21.7472 4.29262 21.702 4.0803 21.614C3.86798 21.5261 3.67507 21.3972 3.51256 21.2347C3.35006 21.0722 3.22116 20.8792 3.13321 20.6669C3.04527 20.4546 3 20.227 3 19.9972V10.1942C3 9.53122 3.293 8.90222 3.8 8.47422L10.55 2.78222ZM12.483 3.92922C12.3478 3.8154 12.1767 3.75299 12 3.75299C11.8233 3.75299 11.6522 3.8154 11.517 3.92922L4.767 9.62022C4.68347 9.69054 4.6163 9.77824 4.57018 9.87722C4.52406 9.97619 4.50011 10.084 4.5 10.1932V19.9962C4.5 20.1342 4.612 20.2462 4.75 20.2462H8.25C8.3163 20.2462 8.37989 20.2199 8.42678 20.173C8.47366 20.1261 8.5 20.0625 8.5 19.9962V14.4962C8.5 13.5292 9.284 12.7462 10.25 12.7462H13.75C14.716 12.7462 15.5 13.5292 15.5 14.4962V19.9962C15.5 20.1342 15.612 20.2462 15.75 20.2462H19.25C19.3163 20.2462 19.3799 20.2199 19.4268 20.173C19.4737 20.1261 19.5 20.0625 19.5 19.9962V10.1942C19.4999 10.085 19.4759 9.97719 19.4298 9.87822C19.3837 9.77925 19.3165 9.69154 19.233 9.62122L12.483 3.92922Z" fill="#3F50C0"/>
</svg>
