<svg width="4" height="8" viewBox="0 0 4 8" fill="none" xmlns="http://www.w3.org/2000/svg">
<path d="M0.683615 4.00001L3.91695 0.6772C3.94357 0.650422 3.96462 0.618631 3.97887 0.583666C3.99313 0.548701 4.0003 0.511256 3.99999 0.473499C3.99968 0.435741 3.99188 0.398421 3.97705 0.363698C3.96221 0.328974 3.94064 0.297537 3.91358 0.271206C3.88652 0.244874 3.8545 0.22417 3.81939 0.210293C3.78427 0.196416 3.74675 0.189641 3.709 0.190359C3.67125 0.191078 3.63401 0.199277 3.59945 0.21448C3.56489 0.229684 3.53369 0.251591 3.50765 0.278934L0.0808864 3.80088C0.0290196 3.85419 0 3.92564 0 4.00001C0 4.07439 0.0290196 4.14584 0.0808864 4.19915L3.50765 7.7211C3.53369 7.74844 3.56489 7.77035 3.59945 7.78555C3.63401 7.80075 3.67125 7.80895 3.709 7.80967C3.74675 7.81039 3.78427 7.80361 3.81939 7.78974C3.8545 7.77586 3.88652 7.75516 3.91358 7.72882C3.94064 7.70249 3.96221 7.67106 3.97705 7.63633C3.99188 7.60161 3.99968 7.56429 3.99999 7.52653C4.0003 7.48877 3.99313 7.45133 3.97887 7.41636C3.96462 7.3814 3.94357 7.34961 3.91695 7.32283L0.683235 4.00001H0.683615Z" fill="white"/>
</svg>
