<svg width="4" height="8" viewBox="0 0 4 8" fill="none" xmlns="http://www.w3.org/2000/svg">
<path d="M0.683615 4.00014L3.91695 0.677322C3.94357 0.650544 3.96462 0.618753 3.97887 0.583788C3.99313 0.548823 4.0003 0.511378 3.99999 0.473621C3.99968 0.435864 3.99188 0.398543 3.97705 0.36382C3.96221 0.329097 3.94064 0.297659 3.91358 0.271328C3.88652 0.244996 3.8545 0.224292 3.81939 0.210415C3.78427 0.196538 3.74675 0.189763 3.709 0.190481C3.67125 0.1912 3.63401 0.199399 3.59945 0.214602C3.56489 0.229806 3.53369 0.251713 3.50765 0.279056L0.0808864 3.801C0.0290196 3.85431 0 3.92576 0 4.00014C0 4.07452 0.0290196 4.14596 0.0808864 4.19927L3.50765 7.72122C3.53369 7.74856 3.56489 7.77047 3.59945 7.78567C3.63401 7.80088 3.67125 7.80907 3.709 7.80979C3.74675 7.81051 3.78427 7.80374 3.81939 7.78986C3.8545 7.77598 3.88652 7.75528 3.91358 7.72895C3.94064 7.70261 3.96221 7.67118 3.97705 7.63645C3.99188 7.60173 3.99968 7.56441 3.99999 7.52665C4.0003 7.4889 3.99313 7.45145 3.97887 7.41649C3.96462 7.38152 3.94357 7.34973 3.91695 7.32295L0.683235 4.00014H0.683615Z" fill="#3F50C0"/>
</svg>
