<svg width="4" height="8" viewBox="0 0 4 8" fill="none" xmlns="http://www.w3.org/2000/svg">
<path d="M3.31638 4.00014L0.0830461 0.677322C0.0564254 0.650544 0.0353798 0.618753 0.0211267 0.583788C0.00687356 0.548823 -0.000303815 0.511378 9.85445e-06 0.473621C0.000323524 0.435864 0.0081218 0.398543 0.0229538 0.36382C0.0377859 0.329097 0.0593572 0.297659 0.086419 0.271328C0.113481 0.244996 0.145496 0.224292 0.180612 0.210415C0.215728 0.196538 0.253247 0.189763 0.290999 0.190481C0.328751 0.1912 0.365985 0.199399 0.400547 0.214602C0.43511 0.229806 0.466313 0.251713 0.492353 0.279056L3.91911 3.801C3.97098 3.85431 4 3.92576 4 4.00014C4 4.07452 3.97098 4.14596 3.91911 4.19927L0.492353 7.72122C0.466313 7.74856 0.43511 7.77047 0.400547 7.78567C0.365985 7.80088 0.328751 7.80907 0.290999 7.80979C0.253247 7.81051 0.215728 7.80374 0.180612 7.78986C0.145496 7.77598 0.113481 7.75528 0.086419 7.72895C0.0593572 7.70261 0.0377859 7.67118 0.0229538 7.63645C0.0081218 7.60173 0.000323524 7.56441 9.85445e-06 7.52665C-0.000303815 7.4889 0.00687356 7.45145 0.0211267 7.41649C0.0353798 7.38152 0.0564254 7.34973 0.0830461 7.32295L3.31677 4.00014H3.31638Z" fill="#3F50C0"/>
</svg>
