<svg width="24" height="24" viewBox="0 0 24 24" fill="none" xmlns="http://www.w3.org/2000/svg">
<path d="M6.74701 3.99998H10.211C10.401 4.00004 10.584 4.07222 10.7228 4.20195C10.8617 4.33168 10.9461 4.50928 10.959 4.69886C10.972 4.88844 10.9125 5.07587 10.7926 5.22328C10.6727 5.37068 10.5013 5.46708 10.313 5.49298L10.211 5.49998H6.74701C6.17704 5.49989 5.62829 5.71612 5.21158 6.10498C4.79487 6.49385 4.54127 7.02637 4.50201 7.59498L4.49701 7.74998V17.25C4.49719 17.8199 4.71367 18.3686 5.10272 18.7851C5.49177 19.2016 6.02439 19.455 6.59301 19.494L6.74701 19.5H16.247C16.8171 19.5 17.366 19.2837 17.7828 18.8946C18.1995 18.5055 18.453 17.9728 18.492 17.404L18.497 17.25V16.752C18.4951 16.5606 18.5664 16.3757 18.6963 16.2352C18.8262 16.0947 19.0049 16.0091 19.1959 15.9961C19.3868 15.9831 19.5755 16.0435 19.7234 16.1651C19.8712 16.2866 19.9669 16.4601 19.991 16.65L19.997 16.752V17.25C19.9968 18.2098 19.6286 19.133 18.9682 19.8295C18.3078 20.526 17.4055 20.9428 16.447 20.994L16.247 21H6.74701C5.78685 21.0001 4.86324 20.6318 4.16649 19.9712C3.46975 19.3105 3.05296 18.4078 3.00201 17.449L2.99701 17.249V7.74898C2.99718 6.78915 3.36538 5.86593 4.02579 5.16943C4.68621 4.47293 5.58855 4.05617 6.54701 4.00498L6.74701 3.99998H10.211H6.74701ZM14.5 6.51998V3.74998C14.4999 3.61202 14.5379 3.47672 14.6097 3.35895C14.6816 3.24117 14.7845 3.1455 14.9072 3.08244C15.0299 3.01939 15.1676 2.99139 15.3052 3.00155C15.4428 3.0117 15.5749 3.0596 15.687 3.13998L15.769 3.20798L21.763 8.95798C22.043 9.22698 22.069 9.65798 21.84 9.95598L21.763 10.041L15.769 15.793C15.6695 15.8886 15.5455 15.9549 15.4107 15.9845C15.2759 16.0142 15.1356 16.0061 15.0051 15.9611C14.8746 15.9161 14.7591 15.836 14.6712 15.7296C14.5833 15.6232 14.5265 15.4946 14.507 15.358L14.5 15.251V12.526L14.156 12.556C11.756 12.806 9.45601 13.887 7.24201 15.816C6.72201 16.269 5.91901 15.841 6.00501 15.158C6.66901 9.83798 9.45101 6.90698 14.2 6.53898L14.5 6.51898V3.74998V6.51998ZM16 5.50698V7.24998C16 7.44889 15.921 7.63966 15.7803 7.78031C15.6397 7.92096 15.4489 7.99998 15.25 7.99998C11.376 7.99998 8.97601 9.67598 7.93801 13.157L7.85901 13.435L8.21101 13.198C10.45 11.737 12.798 11 15.251 11C15.4324 11 15.6076 11.0658 15.7442 11.1851C15.8808 11.3045 15.9696 11.4692 15.994 11.649L16.001 11.75V13.493L20.16 9.49998L16 5.50798V5.50698Z" fill="#ABABB8"/>
</svg>
