<svg width="56" height="57" viewBox="0 0 56 57" fill="none" xmlns="http://www.w3.org/2000/svg">
<g filter="url(#filter0_b_115_2734)">
<circle cx="28" cy="28.9949" r="28" fill="black" fill-opacity="0.5"/>
</g>
<path d="M30 32C30 32.5304 29.7893 33.0391 29.4142 33.4142C29.0391 33.7893 28.5304 34 28 34C27.4696 34 26.9609 33.7893 26.5858 33.4142C26.2107 33.0391 26 32.5304 26 32C26 31.4696 26.2107 30.9609 26.5858 30.5858C26.9609 30.2107 27.4696 30 28 30C28.5304 30 29.0391 30.2107 29.4142 30.5858C29.7893 30.9609 30 31.4696 30 32ZM22 22V20C22 18.4087 22.6321 16.8826 23.7574 15.7574C24.8826 14.6321 26.4087 14 28 14C29.5913 14 31.1174 14.6321 32.2426 15.7574C33.3679 16.8826 34 18.4087 34 20V22H35.5C36.4283 22 37.3185 22.3687 37.9749 23.0251C38.6313 23.6815 39 24.5717 39 25.5V38.5C39 39.4283 38.6313 40.3185 37.9749 40.9749C37.3185 41.6313 36.4283 42 35.5 42H20.5C19.5717 42 18.6815 41.6313 18.0251 40.9749C17.3687 40.3185 17 39.4283 17 38.5V25.5C17 24.5717 17.3687 23.6815 18.0251 23.0251C18.6815 22.3687 19.5717 22 20.5 22H22ZM24 20V22H32V20C32 18.9391 31.5786 17.9217 30.8284 17.1716C30.0783 16.4214 29.0609 16 28 16C26.9391 16 25.9217 16.4214 25.1716 17.1716C24.4214 17.9217 24 18.9391 24 20ZM20.5 24C20.1022 24 19.7206 24.158 19.4393 24.4393C19.158 24.7206 19 25.1022 19 25.5V38.5C19 38.8978 19.158 39.2794 19.4393 39.5607C19.7206 39.842 20.1022 40 20.5 40H35.5C35.8978 40 36.2794 39.842 36.5607 39.5607C36.842 39.2794 37 38.8978 37 38.5V25.5C37 25.1022 36.842 24.7206 36.5607 24.4393C36.2794 24.158 35.8978 24 35.5 24H20.5Z" fill="white"/>
<defs>
<filter id="filter0_b_115_2734" x="-8" y="-7.00513" width="72" height="72" filterUnits="userSpaceOnUse" color-interpolation-filters="sRGB">
<feFlood flood-opacity="0" result="BackgroundImageFix"/>
<feGaussianBlur in="BackgroundImage" stdDeviation="4"/>
<feComposite in2="SourceAlpha" operator="in" result="effect1_backgroundBlur_115_2734"/>
<feBlend mode="normal" in="SourceGraphic" in2="effect1_backgroundBlur_115_2734" result="shape"/>
</filter>
</defs>
</svg>
