<svg width="22" height="29" viewBox="0 0 22 29" fill="none" xmlns="http://www.w3.org/2000/svg">
<path d="M13 18.0049C13 18.5353 12.7893 19.044 12.4142 19.4191C12.0391 19.7942 11.5304 20.0049 11 20.0049C10.4696 20.0049 9.96086 19.7942 9.58579 19.4191C9.21071 19.044 9 18.5353 9 18.0049C9 17.4744 9.21071 16.9657 9.58579 16.5907C9.96086 16.2156 10.4696 16.0049 11 16.0049C11.5304 16.0049 12.0391 16.2156 12.4142 16.5907C12.7893 16.9657 13 17.4744 13 18.0049ZM5 8.00488V6.00488C5 4.41358 5.63214 2.88746 6.75736 1.76224C7.88258 0.637024 9.4087 0.00488281 11 0.00488281C12.5913 0.00488281 14.1174 0.637024 15.2426 1.76224C16.3679 2.88746 17 4.41358 17 6.00488V8.00488H18.5C19.4283 8.00488 20.3185 8.37363 20.9749 9.03001C21.6313 9.68639 22 10.5766 22 11.5049V24.5049C22 25.4331 21.6313 26.3234 20.9749 26.9798C20.3185 27.6361 19.4283 28.0049 18.5 28.0049H3.5C2.57174 28.0049 1.6815 27.6361 1.02513 26.9798C0.368749 26.3234 0 25.4331 0 24.5049V11.5049C0 10.5766 0.368749 9.68639 1.02513 9.03001C1.6815 8.37363 2.57174 8.00488 3.5 8.00488H5ZM7 6.00488V8.00488H15V6.00488C15 4.94402 14.5786 3.9266 13.8284 3.17646C13.0783 2.42631 12.0609 2.00488 11 2.00488C9.93913 2.00488 8.92172 2.42631 8.17157 3.17646C7.42143 3.9266 7 4.94402 7 6.00488ZM3.5 10.0049C3.10218 10.0049 2.72064 10.1629 2.43934 10.4442C2.15804 10.7255 2 11.1071 2 11.5049V24.5049C2 24.9027 2.15804 25.2842 2.43934 25.5655C2.72064 25.8468 3.10218 26.0049 3.5 26.0049H18.5C18.8978 26.0049 19.2794 25.8468 19.5607 25.5655C19.842 25.2842 20 24.9027 20 24.5049V11.5049C20 11.1071 19.842 10.7255 19.5607 10.4442C19.2794 10.1629 18.8978 10.0049 18.5 10.0049H3.5Z" fill="white"/>
</svg>
