<svg width="22" height="29" viewBox="0 0 22 29" fill="none" xmlns="http://www.w3.org/2000/svg">
<path d="M13 18.0051C13 18.5356 12.7893 19.0443 12.4142 19.4193C12.0391 19.7944 11.5304 20.0051 11 20.0051C10.4696 20.0051 9.96086 19.7944 9.58579 19.4193C9.21071 19.0443 9 18.5356 9 18.0051C9 17.4747 9.21071 16.966 9.58579 16.5909C9.96086 16.2158 10.4696 16.0051 11 16.0051C11.5304 16.0051 12.0391 16.2158 12.4142 16.5909C12.7893 16.966 13 17.4747 13 18.0051ZM5 8.00513V6.00513C5 4.41383 5.63214 2.8877 6.75736 1.76249C7.88258 0.637268 9.4087 0.00512695 11 0.00512695C12.5913 0.00512695 14.1174 0.637268 15.2426 1.76249C16.3679 2.8877 17 4.41383 17 6.00513V8.00513H18.5C19.4283 8.00513 20.3185 8.37388 20.9749 9.03025C21.6313 9.68663 22 10.5769 22 11.5051V24.5051C22 25.4334 21.6313 26.3236 20.9749 26.98C20.3185 27.6364 19.4283 28.0051 18.5 28.0051H3.5C2.57174 28.0051 1.6815 27.6364 1.02513 26.98C0.368749 26.3236 0 25.4334 0 24.5051V11.5051C0 10.5769 0.368749 9.68663 1.02513 9.03025C1.6815 8.37388 2.57174 8.00513 3.5 8.00513H5ZM7 6.00513V8.00513H15V6.00513C15 4.94426 14.5786 3.92685 13.8284 3.1767C13.0783 2.42655 12.0609 2.00513 11 2.00513C9.93913 2.00513 8.92172 2.42655 8.17157 3.1767C7.42143 3.92685 7 4.94426 7 6.00513ZM3.5 10.0051C3.10218 10.0051 2.72064 10.1632 2.43934 10.4445C2.15804 10.7258 2 11.1073 2 11.5051V24.5051C2 24.903 2.15804 25.2845 2.43934 25.5658C2.72064 25.8471 3.10218 26.0051 3.5 26.0051H18.5C18.8978 26.0051 19.2794 25.8471 19.5607 25.5658C19.842 25.2845 20 24.903 20 24.5051V11.5051C20 11.1073 19.842 10.7258 19.5607 10.4445C19.2794 10.1632 18.8978 10.0051 18.5 10.0051H3.5Z" fill="white"/>
</svg>
