<svg width="20" height="20" viewBox="0 0 20 20" fill="none" xmlns="http://www.w3.org/2000/svg">
<path d="M10 0C15.523 0 20 4.477 20 10C20 15.523 15.523 20 10 20C8.40399 20.0022 6.83082 19.6208 5.413 18.888L1.587 19.955C1.37354 20.0146 1.14808 20.0163 0.933725 19.9601C0.719366 19.9038 0.523816 19.7916 0.36711 19.6349C0.210404 19.4782 0.0981773 19.2826 0.0419279 19.0683C-0.0143215 18.8539 -0.0125708 18.6285 0.0470007 18.415L1.115 14.592C0.380353 13.1729 -0.00207643 11.5979 7.87551e-07 10C7.87551e-07 4.477 4.477 0 10 0ZM10 1.5C7.74566 1.5 5.58365 2.39553 3.98959 3.98959C2.39553 5.58365 1.5 7.74566 1.5 10C1.5 11.47 1.873 12.883 2.573 14.137L2.723 14.407L1.611 18.391L5.598 17.279L5.868 17.429C7.00238 18.0597 8.26614 18.4222 9.56235 18.4888C10.8586 18.5554 12.1528 18.3242 13.3458 17.8131C14.5389 17.3019 15.599 16.5244 16.4449 15.54C17.2909 14.5556 17.9002 13.3906 18.2261 12.1343C18.552 10.8779 18.5858 9.56364 18.325 8.29219C18.0643 7.02073 17.5158 5.82589 16.7216 4.79927C15.9275 3.77264 14.9088 2.94152 13.7437 2.36962C12.5786 1.79773 11.2979 1.50025 10 1.5ZM6.75 11H11.248C11.438 11.0001 11.6209 11.0722 11.7598 11.202C11.8986 11.3317 11.9831 11.5093 11.996 11.6989C12.009 11.8885 11.9495 12.0759 11.8296 12.2233C11.7097 12.3707 11.5383 12.4671 11.35 12.493L11.248 12.5H6.75C6.55998 12.4999 6.37706 12.4278 6.23821 12.298C6.09936 12.1683 6.01493 11.9907 6.00198 11.8011C5.98902 11.6115 6.04852 11.4241 6.16843 11.2767C6.28835 11.1293 6.45975 11.0329 6.648 11.007L6.75 11H11.248H6.75ZM6.75 7.5H13.255C13.4449 7.50031 13.6277 7.57267 13.7663 7.70248C13.905 7.83229 13.9892 8.00987 14.0021 8.19938C14.0149 8.38888 13.9553 8.57619 13.8354 8.72349C13.7155 8.8708 13.5442 8.96711 13.356 8.993L13.255 9H6.75C6.55998 8.99994 6.37706 8.92776 6.23821 8.79803C6.09936 8.6683 6.01493 8.4907 6.00198 8.30112C5.98902 8.11154 6.04852 7.92411 6.16843 7.7767C6.28835 7.62929 6.45975 7.5329 6.648 7.507L6.75 7.5H13.255H6.75Z" fill="#ABABB8"/>
</svg>
