<svg width="17" height="20" viewBox="0 0 17 20" fill="none" xmlns="http://www.w3.org/2000/svg">
<path d="M13.754 12C14.0494 12 14.342 12.0582 14.6149 12.1713C14.8878 12.2844 15.1358 12.4501 15.3446 12.6591C15.5535 12.868 15.7191 13.1161 15.8321 13.389C15.9451 13.662 16.0031 13.9546 16.003 14.25V14.825C16.003 15.719 15.683 16.584 15.102 17.263C13.532 19.096 11.145 20.001 8 20.001C4.854 20.001 2.468 19.096 0.901999 17.261C0.322246 16.5825 0.0034844 15.7195 0.00299835 14.827V14.249C0.00299832 13.9536 0.0612039 13.661 0.174289 13.3881C0.287375 13.1152 0.453124 12.8672 0.662069 12.6584C0.871014 12.4495 1.11906 12.2839 1.39204 12.1709C1.66501 12.0579 1.95757 11.9999 2.253 12H13.754ZM13.754 13.5H2.252C2.15355 13.5 2.05608 13.5194 1.96514 13.5571C1.8742 13.5948 1.79159 13.6501 1.72202 13.7197C1.65246 13.7894 1.59731 13.8721 1.55973 13.9631C1.52214 14.0541 1.50287 14.1516 1.503 14.25V14.827C1.503 15.362 1.695 15.88 2.043 16.287C3.296 17.756 5.262 18.501 8 18.501C10.738 18.501 12.706 17.756 13.962 16.288C14.3106 15.8803 14.5022 15.3615 14.502 14.825V14.249C14.502 14.0505 14.4232 13.8602 14.283 13.7197C14.1427 13.5793 13.9525 13.5003 13.754 13.5ZM8 0.00500488C8.65661 0.00500487 9.30679 0.134333 9.91342 0.385607C10.52 0.636881 11.0712 1.00518 11.5355 1.46947C11.9998 1.93376 12.3681 2.48496 12.6194 3.09159C12.8707 3.69822 13 4.3484 13 5.005C13 5.66161 12.8707 6.31179 12.6194 6.91842C12.3681 7.52505 11.9998 8.07625 11.5355 8.54054C11.0712 9.00483 10.52 9.37313 9.91342 9.6244C9.30679 9.87568 8.65661 10.005 8 10.005C6.67392 10.005 5.40215 9.47822 4.46446 8.54054C3.52678 7.60286 3 6.33109 3 5.005C3 3.67892 3.52678 2.40715 4.46446 1.46947C5.40215 0.531789 6.67392 0.00500488 8 0.00500488ZM8 1.505C7.54037 1.505 7.08525 1.59554 6.66061 1.77143C6.23597 1.94732 5.85013 2.20513 5.52513 2.53013C5.20012 2.85514 4.94231 3.24097 4.76642 3.66561C4.59053 4.09025 4.5 4.54538 4.5 5.005C4.5 5.46463 4.59053 5.91976 4.76642 6.3444C4.94231 6.76904 5.20012 7.15487 5.52513 7.47988C5.85013 7.80488 6.23597 8.06269 6.66061 8.23858C7.08525 8.41448 7.54037 8.505 8 8.505C8.92826 8.505 9.81849 8.13626 10.4749 7.47988C11.1313 6.8235 11.5 5.93326 11.5 5.005C11.5 4.07675 11.1313 3.18651 10.4749 2.53013C9.81849 1.87375 8.92826 1.505 8 1.505Z" fill="#ABABB8"/>
</svg>
