<svg width="18" height="21" viewBox="0 0 18 21" fill="none" xmlns="http://www.w3.org/2000/svg">
<path d="M9 0.995978C10.9466 0.993419 12.8178 1.74882 14.217 3.10214C15.6162 4.45545 16.4336 6.30036 16.496 8.24598L16.5 8.49598V12.593L17.88 15.749C17.9633 15.9391 17.9978 16.1471 17.9805 16.3539C17.9633 16.5608 17.8947 16.7601 17.781 16.9338C17.6674 17.1075 17.5122 17.2502 17.3296 17.3489C17.1469 17.4475 16.9426 17.4991 16.735 17.499L12 17.502C12.001 18.283 11.6974 19.0336 11.1538 19.5943C10.6101 20.155 9.86919 20.4815 9.08854 20.5046C8.30788 20.5276 7.54901 20.2453 6.9732 19.7177C6.3974 19.1901 6.05006 18.4587 6.005 17.679L6 17.499H1.275C1.06781 17.4987 0.863922 17.447 0.681651 17.3485C0.49938 17.25 0.34443 17.1078 0.230717 16.9346C0.117004 16.7614 0.048089 16.5626 0.0301599 16.3562C0.0122309 16.1498 0.0458495 15.9422 0.127997 15.752L1.5 12.594V8.49598C1.5 4.34098 4.852 0.995978 9 0.995978ZM10.5 17.5L7.5 17.502C7.49993 17.8873 7.64814 18.2578 7.91389 18.5368C8.17964 18.8158 8.54256 18.9818 8.92741 19.0005C9.31226 19.0191 9.68953 18.889 9.98101 18.637C10.2725 18.385 10.4558 18.0305 10.493 17.647L10.5 17.5ZM9 2.49598C5.68 2.49598 3 5.16998 3 8.49598V12.906L1.656 16H16.353L15 12.907V8.50898L14.997 8.28398C14.945 6.72922 14.2901 5.25571 13.1707 4.1754C12.0514 3.09508 10.5556 2.49277 9 2.49598Z" fill="#ABABB8"/>
</svg>
