<svg width="16" height="14" viewBox="0 0 16 14" fill="none" xmlns="http://www.w3.org/2000/svg">
<path d="M13.5 0.5C14.163 0.5 14.7989 0.763392 15.2678 1.23223C15.7366 1.70107 16 2.33696 16 3V11C16 11.663 15.7366 12.2989 15.2678 12.7678C14.7989 13.2366 14.163 13.5 13.5 13.5H2.5C1.83696 13.5 1.20107 13.2366 0.732233 12.7678C0.263392 12.2989 0 11.663 0 11V3C0 2.33696 0.263392 1.70107 0.732233 1.23223C1.20107 0.763392 1.83696 0.5 2.5 0.5H13.5ZM15 4.461L8.254 8.431C8.19022 8.46845 8.11893 8.49128 8.04527 8.49785C7.9716 8.50442 7.8974 8.49457 7.828 8.469L7.746 8.431L1 4.463V11C1 11.3978 1.15804 11.7794 1.43934 12.0607C1.72064 12.342 2.10218 12.5 2.5 12.5H13.5C13.8978 12.5 14.2794 12.342 14.5607 12.0607C14.842 11.7794 15 11.3978 15 11V4.461ZM13.5 1.5H2.5C2.10218 1.5 1.72064 1.65804 1.43934 1.93934C1.15804 2.22064 1 2.60218 1 3V3.302L8 7.42L15 3.3V3C15 2.60218 14.842 2.22064 14.5607 1.93934C14.2794 1.65804 13.8978 1.5 13.5 1.5Z" fill="#3F50C0"/>
</svg>
