<svg width="18" height="21" viewBox="0 0 18 21" fill="none" xmlns="http://www.w3.org/2000/svg">
<path d="M9 0.9961C10.9466 0.993541 12.8178 1.74894 14.217 3.10226C15.6162 4.45557 16.4336 6.30048 16.496 8.2461L16.5 8.4961V12.5931L17.88 15.7491C17.9633 15.9393 17.9978 16.1472 17.9805 16.354C17.9633 16.5609 17.8947 16.7602 17.781 16.9339C17.6674 17.1076 17.5122 17.2503 17.3296 17.349C17.1469 17.4476 16.9426 17.4992 16.735 17.4991L12 17.5021C12.001 18.2831 11.6974 19.0337 11.1538 19.5944C10.6101 20.1551 9.86919 20.4817 9.08854 20.5047C8.30788 20.5278 7.54901 20.2455 6.9732 19.7178C6.3974 19.1902 6.05006 18.4588 6.005 17.6791L6 17.4991H1.275C1.06781 17.4989 0.863922 17.4472 0.681651 17.3486C0.49938 17.2501 0.34443 17.1079 0.230717 16.9347C0.117004 16.7615 0.048089 16.5628 0.0301599 16.3564C0.0122309 16.1499 0.0458495 15.9423 0.127997 15.7521L1.5 12.5941V8.4961C1.5 4.3411 4.852 0.9961 9 0.9961ZM10.5 17.5001L7.5 17.5021C7.49993 17.8874 7.64814 18.258 7.91389 18.5369C8.17964 18.8159 8.54256 18.982 8.92741 19.0006C9.31226 19.0192 9.68953 18.8891 9.98101 18.6371C10.2725 18.3851 10.4558 18.0306 10.493 17.6471L10.5 17.5001ZM9 2.4961C5.68 2.4961 3 5.1701 3 8.4961V12.9061L1.656 16.0001H16.353L15 12.9071V8.5091L14.997 8.2841C14.945 6.72935 14.2901 5.25583 13.1707 4.17552C12.0514 3.09521 10.5556 2.49289 9 2.4961Z" fill="#000"/>
</svg>
