<svg width="40" height="40" viewBox="0 0 40 40" fill="none" xmlns="http://www.w3.org/2000/svg">
<g filter="url(#filter0_b_177_2317)">
<circle cx="20" cy="20" r="20" fill="black" fill-opacity="0.2"/>
</g>
<path d="M21.925 10.5039C22.317 10.5039 22.7023 10.6063 23.0426 10.801C23.3829 10.9957 23.6664 11.2759 23.865 11.6139L24.679 13.0009H26.75C27.6118 13.0009 28.4383 13.3432 29.0477 13.9525C29.6572 14.5618 29.9997 15.3881 30 16.2499V25.7499C30 26.1767 29.9159 26.5993 29.7526 26.9937C29.5893 27.388 29.3499 27.7462 29.0481 28.048C28.7463 28.3498 28.388 28.5892 27.9937 28.7525C27.5994 28.9159 27.1768 28.9999 26.75 28.9999H13.25C12.388 28.9999 11.5614 28.6575 10.9519 28.048C10.3424 27.4385 10 26.6119 10 25.7499V16.2499C10 15.388 10.3424 14.5613 10.9519 13.9518C11.5614 13.3423 12.388 12.9999 13.25 12.9999H15.33L16.205 11.5759C16.4062 11.2481 16.688 10.9774 17.0236 10.7896C17.3592 10.6017 17.7374 10.503 18.122 10.5029H21.925V10.5039ZM21.925 12.0039H18.122C18.0126 12.004 17.9045 12.0281 17.8053 12.0744C17.7062 12.1206 17.6183 12.1881 17.548 12.2719L17.483 12.3619L16.39 14.1419C16.323 14.2513 16.229 14.3416 16.1172 14.4042C16.0053 14.4669 15.8792 14.4999 15.751 14.4999H13.251C13.0211 14.4998 12.7934 14.545 12.581 14.6329C12.3686 14.7207 12.1755 14.8496 12.0129 15.0121C11.8503 15.1747 11.7213 15.3676 11.6333 15.58C11.5453 15.7924 11.5 16.02 11.5 16.2499V25.7499C11.5 26.7159 12.284 27.4999 13.25 27.4999H26.75C27.2141 27.4999 27.6592 27.3156 27.9874 26.9874C28.3156 26.6592 28.5 26.2141 28.5 25.7499V16.2499C28.5 15.7858 28.3156 15.3407 27.9874 15.0125C27.6592 14.6843 27.2141 14.4999 26.75 14.4999H24.25C24.1193 14.5 23.9908 14.4659 23.8773 14.401C23.7638 14.3361 23.6692 14.2426 23.603 14.1299L22.571 12.3729C22.5048 12.2604 22.4104 12.167 22.2971 12.1021C22.1838 12.0372 22.0556 12.003 21.925 12.0029V12.0039ZM20 15.9999C21.1935 15.9999 22.3381 16.474 23.182 17.3179C24.0259 18.1619 24.5 19.3065 24.5 20.4999C24.5 21.6934 24.0259 22.838 23.182 23.6819C22.3381 24.5258 21.1935 24.9999 20 24.9999C18.8065 24.9999 17.6619 24.5258 16.818 23.6819C15.9741 22.838 15.5 21.6934 15.5 20.4999C15.5 19.3065 15.9741 18.1619 16.818 17.3179C17.6619 16.474 18.8065 15.9999 20 15.9999V15.9999ZM20 17.4999C19.606 17.4999 19.2159 17.5775 18.8519 17.7283C18.488 17.8791 18.1573 18.1 17.8787 18.3786C17.6001 18.6572 17.3791 18.9879 17.2284 19.3519C17.0776 19.7159 17 20.106 17 20.4999C17 20.8939 17.0776 21.284 17.2284 21.648C17.3791 22.012 17.6001 22.3427 17.8787 22.6213C18.1573 22.8998 18.488 23.1208 18.8519 23.2716C19.2159 23.4223 19.606 23.4999 20 23.4999C20.7956 23.4999 21.5587 23.1839 22.1213 22.6213C22.6839 22.0586 23 21.2956 23 20.4999C23 19.7043 22.6839 18.9412 22.1213 18.3786C21.5587 17.816 20.7956 17.4999 20 17.4999V17.4999Z" fill="white"/>
<defs>
<filter id="filter0_b_177_2317" x="-8" y="-8" width="56" height="56" filterUnits="userSpaceOnUse" color-interpolation-filters="sRGB">
<feFlood flood-opacity="0" result="BackgroundImageFix"/>
<feGaussianBlur in="BackgroundImage" stdDeviation="4"/>
<feComposite in2="SourceAlpha" operator="in" result="effect1_backgroundBlur_177_2317"/>
<feBlend mode="normal" in="SourceGraphic" in2="effect1_backgroundBlur_177_2317" result="shape"/>
</filter>
</defs>
</svg>
