<svg width="4" height="8" viewBox="0 0 4 8" fill="none" xmlns="http://www.w3.org/2000/svg">
<path d="M3.31638 4.00001L0.0830461 0.6772C0.0564254 0.650422 0.0353798 0.618631 0.0211267 0.583666C0.00687356 0.548701 -0.000303815 0.511256 9.85445e-06 0.473499C0.000323524 0.435741 0.0081218 0.398421 0.0229538 0.363698C0.0377859 0.328974 0.0593572 0.297537 0.086419 0.271206C0.113481 0.244874 0.145496 0.22417 0.180612 0.210293C0.215728 0.196416 0.253247 0.189641 0.290999 0.190359C0.328751 0.191078 0.365985 0.199277 0.400547 0.21448C0.43511 0.229684 0.466313 0.251591 0.492353 0.278934L3.91911 3.80088C3.97098 3.85419 4 3.92564 4 4.00001C4 4.07439 3.97098 4.14584 3.91911 4.19915L0.492353 7.7211C0.466313 7.74844 0.43511 7.77035 0.400547 7.78555C0.365985 7.80075 0.328751 7.80895 0.290999 7.80967C0.253247 7.81039 0.215728 7.80361 0.180612 7.78974C0.145496 7.77586 0.113481 7.75516 0.086419 7.72882C0.0593572 7.70249 0.0377859 7.67106 0.0229538 7.63633C0.0081218 7.60161 0.000323524 7.56429 9.85445e-06 7.52653C-0.000303815 7.48877 0.00687356 7.45133 0.0211267 7.41636C0.0353798 7.3814 0.0564254 7.34961 0.0830461 7.32283L3.31677 4.00001H3.31638Z" fill="white"/>
</svg>
