<svg width="21" height="21" viewBox="0 0 21 21" fill="none" xmlns="http://www.w3.org/2000/svg">
<path d="M15.5 10C16.9587 10 18.3576 10.5795 19.3891 11.6109C20.4205 12.6424 21 14.0413 21 15.5C21 16.9587 20.4205 18.3576 19.3891 19.3891C18.3576 20.4205 16.9587 21 15.5 21C14.0413 21 12.6424 20.4205 11.6109 19.3891C10.5795 18.3576 10 16.9587 10 15.5C10 14.0413 10.5795 12.6424 11.6109 11.6109C12.6424 10.5795 14.0413 10 15.5 10ZM12.853 15.147C12.8069 15.0992 12.7517 15.0612 12.6907 15.035C12.6297 15.0087 12.5641 14.995 12.4977 14.9944C12.4313 14.9938 12.3655 15.0065 12.304 15.0316C12.2426 15.0567 12.1867 15.0939 12.1398 15.1408C12.0929 15.1878 12.0557 15.2436 12.0306 15.305C12.0054 15.3665 11.9928 15.4323 11.9934 15.4987C11.9939 15.5651 12.0077 15.6307 12.0339 15.6917C12.0602 15.7527 12.0982 15.8079 12.146 15.854L14.146 17.854C14.2398 17.9477 14.3669 18.0004 14.4995 18.0004C14.6321 18.0004 14.7592 17.9477 14.853 17.854L18.853 13.854C18.9008 13.8079 18.9388 13.7527 18.965 13.6917C18.9913 13.6307 19.005 13.5651 19.0056 13.4987C19.0062 13.4323 18.9935 13.3665 18.9684 13.305C18.9433 13.2436 18.9061 13.1878 18.8592 13.1408C18.8123 13.0939 18.7564 13.0567 18.695 13.0316C18.6335 13.0065 18.5677 12.9938 18.5013 12.9944C18.4349 12.995 18.3693 13.0087 18.3083 13.035C18.2473 13.0612 18.1921 13.0992 18.146 13.147L14.5 16.793L12.853 15.147ZM10.023 12C9.72292 12.4675 9.48429 12.9716 9.313 13.5H2.253C2.15447 13.4999 2.05688 13.5192 1.96583 13.5568C1.87478 13.5945 1.79204 13.6497 1.72237 13.7194C1.6527 13.7891 1.59747 13.8718 1.55982 13.9628C1.52218 14.0539 1.50287 14.1515 1.503 14.25V14.827C1.503 15.362 1.695 15.88 2.043 16.287C3.296 17.756 5.262 18.501 8 18.501C8.596 18.501 9.156 18.466 9.68 18.395C9.925 18.89 10.233 19.349 10.592 19.762C9.796 19.922 8.932 20.002 8 20.002C4.854 20.002 2.468 19.096 0.901998 17.262C0.322022 16.5832 0.00324639 15.7198 0.00299835 14.827V14.249C0.00299832 13.9536 0.0612036 13.661 0.174289 13.3881C0.287374 13.1152 0.453124 12.8672 0.662069 12.6584C0.871014 12.4495 1.11906 12.2839 1.39204 12.1709C1.66501 12.0579 1.95757 11.9999 2.253 12H10.023ZM8 0.00500488C8.65661 0.00500487 9.30679 0.134333 9.91341 0.385607C10.52 0.636881 11.0712 1.00518 11.5355 1.46947C11.9998 1.93376 12.3681 2.48496 12.6194 3.09159C12.8707 3.69822 13 4.3484 13 5.005C13 5.66161 12.8707 6.31179 12.6194 6.91842C12.3681 7.52505 11.9998 8.07625 11.5355 8.54054C11.0712 9.00483 10.52 9.37313 9.91341 9.6244C9.30679 9.87568 8.65661 10.005 8 10.005C6.67392 10.005 5.40215 9.47822 4.46446 8.54054C3.52678 7.60286 3 6.33109 3 5.005C3 3.67892 3.52678 2.40715 4.46446 1.46947C5.40215 0.531789 6.67392 0.00500488 8 0.00500488ZM8 1.505C7.54037 1.505 7.08525 1.59554 6.66061 1.77143C6.23597 1.94732 5.85013 2.20513 5.52512 2.53013C5.20012 2.85514 4.94231 3.24097 4.76642 3.66561C4.59053 4.09025 4.5 4.54538 4.5 5.005C4.5 5.46463 4.59053 5.91976 4.76642 6.3444C4.94231 6.76904 5.20012 7.15487 5.52512 7.47988C5.85013 7.80488 6.23597 8.06269 6.66061 8.23858C7.08525 8.41448 7.54037 8.505 8 8.505C8.92826 8.505 9.81849 8.13626 10.4749 7.47988C11.1312 6.8235 11.5 5.93326 11.5 5.005C11.5 4.07675 11.1312 3.18651 10.4749 2.53013C9.81849 1.87375 8.92826 1.505 8 1.505Z" fill="#ABABB8"/>
</svg>
