<svg width="16" height="16" viewBox="0 0 16 16" fill="none" xmlns="http://www.w3.org/2000/svg">
<path d="M11.334 2.06395L11.411 2.21695L11.987 3.74995C12.032 3.86995 12.127 3.96595 12.248 4.01095L13.728 4.56695C14.378 4.80995 14.727 5.50395 14.554 6.16095L14.512 6.29095L13.824 7.81395C13.7975 7.87203 13.7838 7.93512 13.7838 7.99895C13.7838 8.06278 13.7975 8.12587 13.824 8.18395L14.478 9.62395C14.6148 9.92579 14.6349 10.2676 14.5345 10.5835C14.434 10.8993 14.2201 11.1667 13.934 11.334L13.781 11.411L12.248 11.987C12.1886 12.0095 12.1347 12.0444 12.0898 12.0894C12.045 12.1344 12.0103 12.1885 11.988 12.248L11.432 13.728C11.3156 14.0387 11.088 14.2952 10.7934 14.4478C10.4987 14.6003 10.1579 14.6382 9.83698 14.554L9.70698 14.512L8.18398 13.824C8.1259 13.7975 8.06281 13.7838 7.99898 13.7838C7.93515 13.7838 7.87206 13.7975 7.81398 13.824L6.37498 14.478C6.07314 14.6148 5.7313 14.6349 5.41548 14.5344C5.09966 14.434 4.83228 14.22 4.66498 13.934L4.58798 13.781L4.01098 12.248C3.98845 12.1886 3.95352 12.1346 3.90851 12.0898C3.86351 12.045 3.80946 12.0103 3.74998 11.988L2.26998 11.432C1.95926 11.3155 1.70277 11.088 1.55018 10.7933C1.39759 10.4987 1.35975 10.1579 1.44398 9.83695L1.48598 9.70695L2.17498 8.18395C2.2014 8.12585 2.21506 8.06277 2.21506 7.99895C2.21506 7.93513 2.2014 7.87205 2.17498 7.81395L1.51998 6.37495C1.38306 6.07322 1.36278 5.73147 1.46306 5.41566C1.56335 5.09986 1.77707 4.83241 2.06298 4.66495L2.21598 4.58795L3.74998 4.00995C3.80956 3.98754 3.86367 3.95266 3.90868 3.90765C3.95369 3.86264 3.98857 3.80853 4.01098 3.74895L4.56698 2.26895C4.68338 1.95844 4.91078 1.70212 5.20521 1.54954C5.49963 1.39697 5.84018 1.35899 6.16098 1.44295L6.29098 1.48495L7.81398 2.17395C7.87208 2.20036 7.93516 2.21403 7.99898 2.21403C8.0628 2.21403 8.12589 2.20036 8.18398 2.17395L9.62398 1.51995C9.92571 1.38303 10.2675 1.36275 10.5833 1.46303C10.8991 1.56331 11.1665 1.77704 11.334 2.06295V2.06395ZM10.164 5.70495L6.97698 9.34495L5.81498 8.18295C5.73056 8.10217 5.61786 8.05766 5.50102 8.05894C5.38418 8.06023 5.27249 8.10722 5.18987 8.18984C5.10725 8.27246 5.06026 8.38415 5.05897 8.50099C5.05769 8.61783 5.1022 8.73053 5.18298 8.81495L6.68298 10.315C6.72627 10.3581 6.77796 10.392 6.83486 10.4144C6.89175 10.4368 6.95264 10.4473 7.01375 10.4452C7.07486 10.4432 7.1349 10.4286 7.19016 10.4024C7.24541 10.3762 7.2947 10.339 7.33498 10.293L10.835 6.29295C10.9062 6.20299 10.9402 6.08906 10.9298 5.97476C10.9193 5.86047 10.8653 5.75456 10.779 5.67899C10.6926 5.60341 10.5804 5.56395 10.4658 5.56878C10.3511 5.57362 10.2427 5.62237 10.163 5.70495H10.164Z" fill="#7989F8"/>
</svg>
