<svg width="48" height="16" viewBox="0 0 48 16" fill="none" xmlns="http://www.w3.org/2000/svg">
<path d="M24.8244 4.955C24.7971 7.11425 26.7488 8.31912 28.2189 9.03556C29.7294 9.77056 30.2368 10.2419 30.2308 10.8993C30.2196 11.9052 29.0259 12.3493 27.909 12.3665C25.9603 12.3967 24.8272 11.8404 23.9265 11.4196L23.2245 14.7044C24.1283 15.1209 25.8017 15.4841 27.537 15.5C31.6104 15.5 34.2754 13.4893 34.2898 10.3717C34.3057 6.41506 28.8171 6.19606 28.8546 4.42756C28.8675 3.89131 29.3792 3.31906 30.5004 3.17356C31.0554 3.10006 32.5875 3.04381 34.3245 3.84369L35.0062 0.665564C34.0721 0.325438 32.8716 -0.000249863 31.3768 -0.000249863C27.5428 -0.000249863 24.8462 2.03788 24.8244 4.955ZM41.5571 0.2735C40.8133 0.2735 40.1865 0.707375 39.9067 1.37319L34.0881 15.2666H38.1585L38.9685 13.028H43.9425L44.4124 15.2666H48L44.8693 0.2735H41.5571ZM42.1266 4.32369L43.3013 9.95375H40.0841L42.1266 4.32369ZM19.8892 0.273687L16.6807 15.2664H20.5596L23.7666 0.273313H19.8892V0.273687ZM14.1512 0.273313L10.1139 10.4784L8.48081 1.80144C8.28919 0.832813 7.53244 0.2735 6.69206 0.2735H0.0924375L0 0.708875C1.35487 1.00287 2.89425 1.47706 3.82687 1.98444C4.39762 2.29438 4.56038 2.56531 4.74788 3.30181L7.84106 15.2666H11.94L18.2243 0.2735H14.1512" fill="url(#paint0_linear_493_17254)"/>
<defs>
<linearGradient id="paint0_linear_493_17254" x1="22.0675" y1="15.8109" x2="22.5162" y2="-0.108049" gradientUnits="userSpaceOnUse">
<stop stop-color="#222357"/>
<stop offset="1" stop-color="#254AA5"/>
</linearGradient>
</defs>
</svg>
