<svg width="30" height="18" viewBox="0 0 30 18" fill="none" xmlns="http://www.w3.org/2000/svg">
<path fill-rule="evenodd" clip-rule="evenodd" d="M29.3116 1.21884C29.5201 0.516261 29.3116 0 28.3191 0H25.0371C24.2026 0 23.8178 0.445973 23.6092 0.937752C23.6092 0.937752 21.9402 5.0478 19.5758 7.71755C18.8109 8.49036 18.4631 8.73624 18.0459 8.73624C17.8373 8.73624 17.5353 8.49035 17.5353 7.78783V1.21884C17.5353 0.375746 17.2931 0 16.5976 0H11.4402C10.9187 0 10.605 0.391301 10.605 0.762151C10.605 1.56139 11.7872 1.7457 11.909 3.99396V8.87682C11.909 9.94737 11.7177 10.1415 11.3004 10.1415C10.1878 10.1415 7.48134 6.01305 5.87616 1.28907C5.56159 0.370895 5.24607 0 4.40728 0H1.12527C0.187553 0 0 0.445973 0 0.937752C0 1.81599 1.11267 6.17193 5.1808 11.933C7.89286 15.8673 11.714 18 15.191 18C17.2772 18 17.5353 17.5263 17.5353 16.7104V13.7368C17.5353 12.7895 17.733 12.6004 18.3936 12.6004C18.8804 12.6004 19.7149 12.8463 21.6621 14.7432C23.8874 16.9914 24.2542 18 25.5059 18H28.7879C29.7257 18 30.1945 17.5263 29.924 16.5915C29.6281 15.6599 28.5656 14.3081 27.1558 12.7058C26.3908 11.7925 25.2434 10.8089 24.8957 10.317C24.4089 9.68477 24.548 9.40368 24.8957 8.84168C24.8957 8.84168 28.8943 3.15086 29.3116 1.21884Z" fill="#3F50C0"/>
</svg>
